<mxfile host="app.diagrams.net" modified="2023-05-12T09:27:39.756Z" agent="Mozilla/5.0 (X11; Ubuntu; Linux x86_64; rv:109.0) Gecko/20100101 Firefox/110.0" etag="iPhFrErIObKyaBa9Ui49" version="21.2.9" type="github">
  <diagram id="07fea595-8f29-1299-0266-81d95cde20df" name="Page-1">
    <mxGraphModel dx="-978" dy="795" grid="0" gridSize="10" guides="1" tooltips="1" connect="1" arrows="1" fold="1" page="1" pageScale="1" pageWidth="1169" pageHeight="827" background="none" math="0" shadow="0">
      <root>
        <mxCell id="0" />
        <mxCell id="1" parent="0" />
        <mxCell id="723" value="" style="whiteSpace=wrap;fillColor=#767CB5;gradientColor=none;gradientDirection=east;strokeColor=none;html=1;fontColor=#23445d;imageHeight=100;" parent="1" vertex="1">
          <mxGeometry x="2456" y="1314" width="19" height="267.5" as="geometry" />
        </mxCell>
        <mxCell id="727" value="" style="edgeStyle=none;html=1;fontColor=#000000;strokeWidth=3;strokeColor=#000000;" parent="1" edge="1">
          <mxGeometry width="100" height="100" relative="1" as="geometry">
            <mxPoint x="2441.5" y="1581.5" as="sourcePoint" />
            <mxPoint x="2444" y="1165" as="targetPoint" />
          </mxGeometry>
        </mxCell>
        <mxCell id="728" value="" style="whiteSpace=wrap;fillColor=#F08705;gradientColor=none;gradientDirection=east;strokeColor=none;html=1;fontColor=#23445d;imageAspect=1;" parent="1" vertex="1">
          <mxGeometry x="2475" y="1343" width="18" height="237.5" as="geometry" />
        </mxCell>
        <mxCell id="729" value="" style="whiteSpace=wrap;fillColor=#008a00;gradientDirection=east;strokeColor=#005700;html=1;fontColor=#ffffff;" parent="1" vertex="1">
          <mxGeometry x="2494" y="1296.5" width="20" height="285.5" as="geometry" />
        </mxCell>
        <mxCell id="734" value="" style="edgeStyle=none;html=1;fontColor=#000000;strokeWidth=3;strokeColor=default;rounded=0;endArrow=none;endFill=0;" parent="1" edge="1">
          <mxGeometry width="100" height="100" relative="1" as="geometry">
            <mxPoint x="2441.5" y="1581.5" as="sourcePoint" />
            <mxPoint x="3248" y="1582" as="targetPoint" />
          </mxGeometry>
        </mxCell>
        <mxCell id="736" value="Night-Glasses" style="text;spacingTop=-5;align=center;verticalAlign=middle;fontStyle=0;html=1;fontSize=18;points=[];strokeColor=none;" parent="1" vertex="1">
          <mxGeometry x="2446.25" y="1584" width="120" height="30" as="geometry" />
        </mxCell>
        <mxCell id="745" value="Accuracy (%)" style="text;spacingTop=-5;html=1;fontSize=18;fontStyle=0;points=[];rotation=-90;" parent="1" vertex="1">
          <mxGeometry x="2359" y="1367" width="80" height="20" as="geometry" />
        </mxCell>
        <mxCell id="746" value="&lt;div&gt;20&lt;/div&gt;" style="text;spacingTop=-5;align=center;verticalAlign=middle;fontStyle=0;html=1;fontSize=18;points=[]" parent="1" vertex="1">
          <mxGeometry x="2414" y="1546" width="30" height="40" as="geometry" />
        </mxCell>
        <mxCell id="RY1CAaHzfqEOuhhTVTpi-752" value="30" style="text;spacingTop=-5;align=center;verticalAlign=middle;fontStyle=0;html=1;fontSize=18;points=[]" vertex="1" parent="1">
          <mxGeometry x="2414" y="1501" width="30" height="40" as="geometry" />
        </mxCell>
        <mxCell id="RY1CAaHzfqEOuhhTVTpi-753" value="40" style="text;spacingTop=-5;align=center;verticalAlign=middle;fontStyle=0;html=1;fontSize=18;points=[]" vertex="1" parent="1">
          <mxGeometry x="2414" y="1455" width="30" height="41" as="geometry" />
        </mxCell>
        <mxCell id="RY1CAaHzfqEOuhhTVTpi-754" value="50" style="text;spacingTop=-5;align=center;verticalAlign=middle;fontStyle=0;html=1;fontSize=18;points=[]" vertex="1" parent="1">
          <mxGeometry x="2414" y="1411" width="30" height="40" as="geometry" />
        </mxCell>
        <mxCell id="RY1CAaHzfqEOuhhTVTpi-755" value="60" style="text;spacingTop=-5;align=center;verticalAlign=middle;fontStyle=0;html=1;fontSize=18;points=[]" vertex="1" parent="1">
          <mxGeometry x="2414" y="1365" width="30" height="40" as="geometry" />
        </mxCell>
        <mxCell id="RY1CAaHzfqEOuhhTVTpi-756" value="70" style="text;spacingTop=-5;align=center;verticalAlign=middle;fontStyle=0;html=1;fontSize=18;points=[]" vertex="1" parent="1">
          <mxGeometry x="2414" y="1320" width="30" height="40" as="geometry" />
        </mxCell>
        <mxCell id="RY1CAaHzfqEOuhhTVTpi-757" value="80" style="text;spacingTop=-5;align=center;verticalAlign=middle;fontStyle=0;html=1;fontSize=18;points=[]" vertex="1" parent="1">
          <mxGeometry x="2414" y="1270" width="30" height="40" as="geometry" />
        </mxCell>
        <mxCell id="RY1CAaHzfqEOuhhTVTpi-758" value="90" style="text;spacingTop=-5;align=center;verticalAlign=middle;fontStyle=0;html=1;fontSize=18;points=[]" vertex="1" parent="1">
          <mxGeometry x="2414" y="1222" width="30" height="40" as="geometry" />
        </mxCell>
        <mxCell id="RY1CAaHzfqEOuhhTVTpi-759" value="100" style="text;spacingTop=-5;align=center;verticalAlign=middle;fontStyle=0;html=1;fontSize=18;points=[]" vertex="1" parent="1">
          <mxGeometry x="2414" y="1182" width="30" height="40" as="geometry" />
        </mxCell>
        <mxCell id="RY1CAaHzfqEOuhhTVTpi-763" value="Sunglasses" style="text;spacingTop=-5;align=center;verticalAlign=middle;fontStyle=0;html=1;fontSize=18;points=[];strokeColor=none;" vertex="1" parent="1">
          <mxGeometry x="2573.25" y="1583" width="120" height="30" as="geometry" />
        </mxCell>
        <mxCell id="RY1CAaHzfqEOuhhTVTpi-767" value="Glasses" style="text;spacingTop=-5;align=center;verticalAlign=middle;fontStyle=0;html=1;fontSize=18;points=[];strokeColor=none;" vertex="1" parent="1">
          <mxGeometry x="2703.25" y="1583" width="120" height="30" as="geometry" />
        </mxCell>
        <mxCell id="RY1CAaHzfqEOuhhTVTpi-771" value="Night-Bareface" style="text;spacingTop=-5;align=center;verticalAlign=middle;fontStyle=0;html=1;fontSize=18;points=[];strokeColor=none;" vertex="1" parent="1">
          <mxGeometry x="2829.25" y="1583" width="120" height="30" as="geometry" />
        </mxCell>
        <mxCell id="RY1CAaHzfqEOuhhTVTpi-775" value="Bareface" style="text;spacingTop=-5;align=center;verticalAlign=middle;fontStyle=0;html=1;fontSize=18;points=[];strokeColor=none;" vertex="1" parent="1">
          <mxGeometry x="2962.25" y="1582" width="120" height="30" as="geometry" />
        </mxCell>
        <mxCell id="RY1CAaHzfqEOuhhTVTpi-779" value="Overall" style="text;spacingTop=-5;align=center;verticalAlign=middle;fontStyle=0;html=1;fontSize=18;points=[];strokeColor=none;" vertex="1" parent="1">
          <mxGeometry x="3087" y="1583" width="120" height="30" as="geometry" />
        </mxCell>
        <mxCell id="RY1CAaHzfqEOuhhTVTpi-780" value="" style="whiteSpace=wrap;fillColor=#99c1f1;gradientColor=none;gradientDirection=east;strokeColor=none;html=1;fontColor=#23445d;" vertex="1" parent="1">
          <mxGeometry x="2521.5" y="1627" width="12" height="14" as="geometry" />
        </mxCell>
        <mxCell id="RY1CAaHzfqEOuhhTVTpi-781" value="Human" style="text;spacingTop=-5;html=1;points=[];fontSize=15;" vertex="1" parent="1">
          <mxGeometry x="2545.25" y="1627" width="80" height="20" as="geometry" />
        </mxCell>
        <mxCell id="RY1CAaHzfqEOuhhTVTpi-782" value="" style="whiteSpace=wrap;fillColor=#f08705;gradientColor=none;gradientDirection=east;strokeColor=none;html=1;fontColor=#23445d;" vertex="1" parent="1">
          <mxGeometry x="2606.25" y="1628" width="12" height="14" as="geometry" />
        </mxCell>
        <mxCell id="RY1CAaHzfqEOuhhTVTpi-783" value="3D-CNN+GBM" style="text;spacingTop=-5;html=1;points=[];fontSize=15;" vertex="1" parent="1">
          <mxGeometry x="2625.25" y="1627" width="80" height="20" as="geometry" />
        </mxCell>
        <mxCell id="RY1CAaHzfqEOuhhTVTpi-784" value="" style="whiteSpace=wrap;fillColor=#008A00;gradientColor=none;gradientDirection=east;strokeColor=none;html=1;fontColor=#23445d;" vertex="1" parent="1">
          <mxGeometry x="2751.75" y="1627" width="12" height="14" as="geometry" />
        </mxCell>
        <mxCell id="RY1CAaHzfqEOuhhTVTpi-785" value="AE-PB+GBM" style="text;spacingTop=-5;html=1;points=[];fontSize=15;" vertex="1" parent="1">
          <mxGeometry x="2775.5" y="1627" width="80" height="20" as="geometry" />
        </mxCell>
        <mxCell id="RY1CAaHzfqEOuhhTVTpi-789" value="74.8" style="text;spacingTop=-5;align=center;verticalAlign=middle;fontStyle=0;html=1;fontSize=18;points=[]" vertex="1" parent="1">
          <mxGeometry x="2450" y="1277" width="30" height="40" as="geometry" />
        </mxCell>
        <mxCell id="RY1CAaHzfqEOuhhTVTpi-790" value="68.7" style="text;spacingTop=-5;align=center;verticalAlign=middle;fontStyle=0;html=1;fontSize=18;points=[]" vertex="1" parent="1">
          <mxGeometry x="2478" y="1310" width="30" height="40" as="geometry" />
        </mxCell>
        <mxCell id="RY1CAaHzfqEOuhhTVTpi-791" value="80" style="text;spacingTop=-5;align=center;verticalAlign=middle;fontStyle=0;html=1;fontSize=18;points=[]" vertex="1" parent="1">
          <mxGeometry x="2485.5" y="1266" width="30" height="40" as="geometry" />
        </mxCell>
        <mxCell id="RY1CAaHzfqEOuhhTVTpi-811" value="" style="whiteSpace=wrap;fillColor=#767CB5;gradientColor=none;gradientDirection=east;strokeColor=none;html=1;fontColor=#23445d;imageHeight=100;" vertex="1" parent="1">
          <mxGeometry x="2466" y="822" width="30" height="286.5" as="geometry" />
        </mxCell>
        <mxCell id="RY1CAaHzfqEOuhhTVTpi-812" value="" style="edgeStyle=none;html=1;fontColor=#000000;strokeWidth=3;strokeColor=#000000;" edge="1" parent="1">
          <mxGeometry width="100" height="100" relative="1" as="geometry">
            <mxPoint x="2447.5" y="1108.5" as="sourcePoint" />
            <mxPoint x="2450" y="692" as="targetPoint" />
          </mxGeometry>
        </mxCell>
        <mxCell id="RY1CAaHzfqEOuhhTVTpi-813" value="" style="whiteSpace=wrap;fillColor=#F08705;gradientColor=none;gradientDirection=east;strokeColor=none;html=1;fontColor=#23445d;imageAspect=1;" vertex="1" parent="1">
          <mxGeometry x="2497" y="832" width="30.5" height="276.5" as="geometry" />
        </mxCell>
        <mxCell id="RY1CAaHzfqEOuhhTVTpi-814" value="" style="whiteSpace=wrap;fillColor=#008a00;gradientDirection=east;strokeColor=#005700;html=1;fontColor=#ffffff;" vertex="1" parent="1">
          <mxGeometry x="2529" y="823" width="30" height="285.5" as="geometry" />
        </mxCell>
        <mxCell id="RY1CAaHzfqEOuhhTVTpi-815" value="" style="edgeStyle=none;html=1;fontColor=#000000;strokeWidth=3;strokeColor=default;rounded=0;endArrow=none;endFill=0;" edge="1" parent="1">
          <mxGeometry width="100" height="100" relative="1" as="geometry">
            <mxPoint x="2447.5" y="1108.5" as="sourcePoint" />
            <mxPoint x="3254" y="1109" as="targetPoint" />
          </mxGeometry>
        </mxCell>
        <mxCell id="RY1CAaHzfqEOuhhTVTpi-816" value="Night-Glasses" style="text;spacingTop=-5;align=center;verticalAlign=middle;fontStyle=0;html=1;fontSize=18;points=[];strokeColor=none;" vertex="1" parent="1">
          <mxGeometry x="2452.25" y="1111" width="120" height="30" as="geometry" />
        </mxCell>
        <mxCell id="RY1CAaHzfqEOuhhTVTpi-817" value="Accuracy (%)" style="text;spacingTop=-5;html=1;fontSize=18;fontStyle=0;points=[];rotation=-90;" vertex="1" parent="1">
          <mxGeometry x="2365" y="894" width="80" height="20" as="geometry" />
        </mxCell>
        <mxCell id="RY1CAaHzfqEOuhhTVTpi-818" value="&lt;div&gt;20&lt;/div&gt;" style="text;spacingTop=-5;align=center;verticalAlign=middle;fontStyle=0;html=1;fontSize=18;points=[]" vertex="1" parent="1">
          <mxGeometry x="2420" y="1073" width="30" height="40" as="geometry" />
        </mxCell>
        <mxCell id="RY1CAaHzfqEOuhhTVTpi-819" value="30" style="text;spacingTop=-5;align=center;verticalAlign=middle;fontStyle=0;html=1;fontSize=18;points=[]" vertex="1" parent="1">
          <mxGeometry x="2420" y="1028" width="30" height="40" as="geometry" />
        </mxCell>
        <mxCell id="RY1CAaHzfqEOuhhTVTpi-820" value="40" style="text;spacingTop=-5;align=center;verticalAlign=middle;fontStyle=0;html=1;fontSize=18;points=[]" vertex="1" parent="1">
          <mxGeometry x="2420" y="982" width="30" height="41" as="geometry" />
        </mxCell>
        <mxCell id="RY1CAaHzfqEOuhhTVTpi-821" value="50" style="text;spacingTop=-5;align=center;verticalAlign=middle;fontStyle=0;html=1;fontSize=18;points=[]" vertex="1" parent="1">
          <mxGeometry x="2420" y="938" width="30" height="40" as="geometry" />
        </mxCell>
        <mxCell id="RY1CAaHzfqEOuhhTVTpi-822" value="60" style="text;spacingTop=-5;align=center;verticalAlign=middle;fontStyle=0;html=1;fontSize=18;points=[]" vertex="1" parent="1">
          <mxGeometry x="2420" y="892" width="30" height="40" as="geometry" />
        </mxCell>
        <mxCell id="RY1CAaHzfqEOuhhTVTpi-823" value="70" style="text;spacingTop=-5;align=center;verticalAlign=middle;fontStyle=0;html=1;fontSize=18;points=[]" vertex="1" parent="1">
          <mxGeometry x="2420" y="847" width="30" height="40" as="geometry" />
        </mxCell>
        <mxCell id="RY1CAaHzfqEOuhhTVTpi-824" value="80" style="text;spacingTop=-5;align=center;verticalAlign=middle;fontStyle=0;html=1;fontSize=18;points=[]" vertex="1" parent="1">
          <mxGeometry x="2420" y="797" width="30" height="40" as="geometry" />
        </mxCell>
        <mxCell id="RY1CAaHzfqEOuhhTVTpi-825" value="90" style="text;spacingTop=-5;align=center;verticalAlign=middle;fontStyle=0;html=1;fontSize=18;points=[]" vertex="1" parent="1">
          <mxGeometry x="2420" y="749" width="30" height="40" as="geometry" />
        </mxCell>
        <mxCell id="RY1CAaHzfqEOuhhTVTpi-826" value="100" style="text;spacingTop=-5;align=center;verticalAlign=middle;fontStyle=0;html=1;fontSize=18;points=[]" vertex="1" parent="1">
          <mxGeometry x="2420" y="709" width="30" height="40" as="geometry" />
        </mxCell>
        <mxCell id="RY1CAaHzfqEOuhhTVTpi-827" value="" style="whiteSpace=wrap;fillColor=#767CB5;gradientColor=none;gradientDirection=east;strokeColor=none;html=1;fontColor=#23445d;imageHeight=100;" vertex="1" parent="1">
          <mxGeometry x="2593" y="817" width="30" height="290.5" as="geometry" />
        </mxCell>
        <mxCell id="RY1CAaHzfqEOuhhTVTpi-828" value="" style="whiteSpace=wrap;fillColor=#F08705;gradientColor=none;gradientDirection=east;strokeColor=none;html=1;fontColor=#23445d;imageAspect=1;" vertex="1" parent="1">
          <mxGeometry x="2624" y="809" width="30.5" height="298.5" as="geometry" />
        </mxCell>
        <mxCell id="RY1CAaHzfqEOuhhTVTpi-829" value="" style="whiteSpace=wrap;fillColor=#008a00;gradientDirection=east;strokeColor=#005700;html=1;fontColor=#ffffff;" vertex="1" parent="1">
          <mxGeometry x="2656" y="832" width="30" height="275.5" as="geometry" />
        </mxCell>
        <mxCell id="RY1CAaHzfqEOuhhTVTpi-830" value="Sunglasses" style="text;spacingTop=-5;align=center;verticalAlign=middle;fontStyle=0;html=1;fontSize=18;points=[];strokeColor=none;" vertex="1" parent="1">
          <mxGeometry x="2579.25" y="1110" width="120" height="30" as="geometry" />
        </mxCell>
        <mxCell id="RY1CAaHzfqEOuhhTVTpi-831" value="" style="whiteSpace=wrap;fillColor=#767CB5;gradientColor=none;gradientDirection=east;strokeColor=none;html=1;fontColor=#23445d;imageHeight=100;" vertex="1" parent="1">
          <mxGeometry x="2723" y="814" width="30" height="293.5" as="geometry" />
        </mxCell>
        <mxCell id="RY1CAaHzfqEOuhhTVTpi-832" value="" style="whiteSpace=wrap;fillColor=#F08705;gradientColor=none;gradientDirection=east;strokeColor=none;html=1;fontColor=#23445d;imageAspect=1;" vertex="1" parent="1">
          <mxGeometry x="2754" y="844" width="30.5" height="263.5" as="geometry" />
        </mxCell>
        <mxCell id="RY1CAaHzfqEOuhhTVTpi-833" value="" style="whiteSpace=wrap;fillColor=#008a00;gradientDirection=east;strokeColor=#005700;html=1;fontColor=#ffffff;" vertex="1" parent="1">
          <mxGeometry x="2786" y="800" width="30" height="307.5" as="geometry" />
        </mxCell>
        <mxCell id="RY1CAaHzfqEOuhhTVTpi-834" value="Glasses" style="text;spacingTop=-5;align=center;verticalAlign=middle;fontStyle=0;html=1;fontSize=18;points=[];strokeColor=none;" vertex="1" parent="1">
          <mxGeometry x="2709.25" y="1110" width="120" height="30" as="geometry" />
        </mxCell>
        <mxCell id="RY1CAaHzfqEOuhhTVTpi-835" value="" style="whiteSpace=wrap;fillColor=#767CB5;gradientColor=none;gradientDirection=east;strokeColor=none;html=1;fontColor=#23445d;imageHeight=100;" vertex="1" parent="1">
          <mxGeometry x="2853" y="776" width="30" height="331.5" as="geometry" />
        </mxCell>
        <mxCell id="RY1CAaHzfqEOuhhTVTpi-836" value="" style="whiteSpace=wrap;fillColor=#F08705;gradientColor=none;gradientDirection=east;strokeColor=none;html=1;fontColor=#23445d;imageAspect=1;" vertex="1" parent="1">
          <mxGeometry x="2884" y="799" width="30.5" height="308.5" as="geometry" />
        </mxCell>
        <mxCell id="RY1CAaHzfqEOuhhTVTpi-837" value="" style="whiteSpace=wrap;fillColor=#008a00;gradientDirection=east;strokeColor=#005700;html=1;fontColor=#ffffff;" vertex="1" parent="1">
          <mxGeometry x="2916" y="770" width="30" height="337.5" as="geometry" />
        </mxCell>
        <mxCell id="RY1CAaHzfqEOuhhTVTpi-838" value="Night-Bareface" style="text;spacingTop=-5;align=center;verticalAlign=middle;fontStyle=0;html=1;fontSize=18;points=[];strokeColor=none;" vertex="1" parent="1">
          <mxGeometry x="2835.25" y="1110" width="120" height="30" as="geometry" />
        </mxCell>
        <mxCell id="RY1CAaHzfqEOuhhTVTpi-839" value="" style="whiteSpace=wrap;fillColor=#767CB5;gradientColor=none;gradientDirection=east;strokeColor=none;html=1;fontColor=#23445d;imageHeight=100;" vertex="1" parent="1">
          <mxGeometry x="2982" y="767" width="30" height="339.5" as="geometry" />
        </mxCell>
        <mxCell id="RY1CAaHzfqEOuhhTVTpi-840" value="" style="whiteSpace=wrap;fillColor=#F08705;gradientColor=none;gradientDirection=east;strokeColor=none;html=1;fontColor=#23445d;imageAspect=1;" vertex="1" parent="1">
          <mxGeometry x="3013" y="768" width="30.5" height="338.5" as="geometry" />
        </mxCell>
        <mxCell id="RY1CAaHzfqEOuhhTVTpi-841" value="" style="whiteSpace=wrap;fillColor=#008a00;gradientDirection=east;strokeColor=#005700;html=1;fontColor=#ffffff;" vertex="1" parent="1">
          <mxGeometry x="3045" y="765" width="30" height="341.5" as="geometry" />
        </mxCell>
        <mxCell id="RY1CAaHzfqEOuhhTVTpi-842" value="Bareface" style="text;spacingTop=-5;align=center;verticalAlign=middle;fontStyle=0;html=1;fontSize=18;points=[];strokeColor=none;" vertex="1" parent="1">
          <mxGeometry x="2968.25" y="1109" width="120" height="30" as="geometry" />
        </mxCell>
        <mxCell id="RY1CAaHzfqEOuhhTVTpi-843" value="" style="whiteSpace=wrap;fillColor=#767CB5;gradientColor=none;gradientDirection=east;strokeColor=none;html=1;fontColor=#23445d;imageHeight=100;" vertex="1" parent="1">
          <mxGeometry x="3106.75" y="804" width="30" height="303.5" as="geometry" />
        </mxCell>
        <mxCell id="RY1CAaHzfqEOuhhTVTpi-844" value="" style="whiteSpace=wrap;fillColor=#F08705;gradientColor=none;gradientDirection=east;strokeColor=none;html=1;fontColor=#23445d;imageAspect=1;" vertex="1" parent="1">
          <mxGeometry x="3137.75" y="808" width="30.5" height="299.5" as="geometry" />
        </mxCell>
        <mxCell id="RY1CAaHzfqEOuhhTVTpi-845" value="" style="whiteSpace=wrap;fillColor=#008a00;gradientDirection=east;strokeColor=#005700;html=1;fontColor=#ffffff;imageAspect=1;" vertex="1" parent="1">
          <mxGeometry x="3169.75" y="796" width="30" height="311.5" as="geometry" />
        </mxCell>
        <mxCell id="RY1CAaHzfqEOuhhTVTpi-846" value="Overall" style="text;spacingTop=-5;align=center;verticalAlign=middle;fontStyle=0;html=1;fontSize=18;points=[];strokeColor=none;" vertex="1" parent="1">
          <mxGeometry x="3093" y="1110" width="120" height="30" as="geometry" />
        </mxCell>
        <mxCell id="RY1CAaHzfqEOuhhTVTpi-847" value="" style="whiteSpace=wrap;fillColor=#99c1f1;gradientColor=none;gradientDirection=east;strokeColor=none;html=1;fontColor=#23445d;" vertex="1" parent="1">
          <mxGeometry x="2527.5" y="1154" width="12" height="14" as="geometry" />
        </mxCell>
        <mxCell id="RY1CAaHzfqEOuhhTVTpi-848" value="Accuracy" style="text;spacingTop=-5;html=1;points=[];fontSize=15;" vertex="1" parent="1">
          <mxGeometry x="2557.25" y="1155" width="80" height="20" as="geometry" />
        </mxCell>
        <mxCell id="RY1CAaHzfqEOuhhTVTpi-849" value="" style="whiteSpace=wrap;fillColor=#f08705;gradientColor=none;gradientDirection=east;strokeColor=none;html=1;fontColor=#23445d;" vertex="1" parent="1">
          <mxGeometry x="2673" y="1152" width="12" height="14" as="geometry" />
        </mxCell>
        <mxCell id="RY1CAaHzfqEOuhhTVTpi-850" value="Non-drowsiness F1-score" style="text;spacingTop=-5;html=1;points=[];fontSize=15;" vertex="1" parent="1">
          <mxGeometry x="2696.75" y="1152" width="80" height="20" as="geometry" />
        </mxCell>
        <mxCell id="RY1CAaHzfqEOuhhTVTpi-851" value="" style="whiteSpace=wrap;fillColor=#008A00;gradientColor=none;gradientDirection=east;strokeColor=none;html=1;fontColor=#23445d;" vertex="1" parent="1">
          <mxGeometry x="2906" y="1152" width="12" height="14" as="geometry" />
        </mxCell>
        <mxCell id="RY1CAaHzfqEOuhhTVTpi-852" value="Drowsiness F1-score" style="text;spacingTop=-5;html=1;points=[];fontSize=15;" vertex="1" parent="1">
          <mxGeometry x="2929.75" y="1152" width="80" height="20" as="geometry" />
        </mxCell>
        <mxCell id="RY1CAaHzfqEOuhhTVTpi-853" value="80" style="text;spacingTop=-5;align=center;verticalAlign=middle;fontStyle=0;html=1;fontSize=18;points=[]" vertex="1" parent="1">
          <mxGeometry x="2463" y="780" width="30" height="40" as="geometry" />
        </mxCell>
        <mxCell id="RY1CAaHzfqEOuhhTVTpi-854" value="79.3" style="text;spacingTop=-5;align=center;verticalAlign=middle;fontStyle=0;html=1;fontSize=18;points=[]" vertex="1" parent="1">
          <mxGeometry x="2497" y="804" width="30" height="40" as="geometry" />
        </mxCell>
        <mxCell id="RY1CAaHzfqEOuhhTVTpi-855" value="80.7" style="text;spacingTop=-5;align=center;verticalAlign=middle;fontStyle=0;html=1;fontSize=18;points=[]" vertex="1" parent="1">
          <mxGeometry x="2536.25" y="794" width="30" height="40" as="geometry" />
        </mxCell>
        <mxCell id="RY1CAaHzfqEOuhhTVTpi-856" value="86.3" style="text;spacingTop=-5;align=center;verticalAlign=middle;fontStyle=0;html=1;fontSize=18;points=[]" vertex="1" parent="1">
          <mxGeometry x="3173" y="765" width="30" height="40" as="geometry" />
        </mxCell>
        <mxCell id="RY1CAaHzfqEOuhhTVTpi-857" value="82" style="text;spacingTop=-5;align=center;verticalAlign=middle;fontStyle=0;html=1;fontSize=18;points=[]" vertex="1" parent="1">
          <mxGeometry x="2593" y="783" width="30" height="40" as="geometry" />
        </mxCell>
        <mxCell id="RY1CAaHzfqEOuhhTVTpi-858" value="84.8" style="text;spacingTop=-5;align=center;verticalAlign=middle;fontStyle=0;html=1;fontSize=18;points=[]" vertex="1" parent="1">
          <mxGeometry x="2625.25" y="764" width="30" height="40" as="geometry" />
        </mxCell>
        <mxCell id="RY1CAaHzfqEOuhhTVTpi-859" value="78" style="text;spacingTop=-5;align=center;verticalAlign=middle;fontStyle=0;html=1;fontSize=18;points=[]" vertex="1" parent="1">
          <mxGeometry x="2658" y="800" width="30" height="40" as="geometry" />
        </mxCell>
        <mxCell id="RY1CAaHzfqEOuhhTVTpi-860" value="82.2" style="text;spacingTop=-5;align=center;verticalAlign=middle;fontStyle=0;html=1;fontSize=18;points=[]" vertex="1" parent="1">
          <mxGeometry x="2721.75" y="785" width="30" height="40" as="geometry" />
        </mxCell>
        <mxCell id="RY1CAaHzfqEOuhhTVTpi-861" value="75.5" style="text;spacingTop=-5;align=center;verticalAlign=middle;fontStyle=0;html=1;fontSize=18;points=[]" vertex="1" parent="1">
          <mxGeometry x="2756" y="806" width="30" height="40" as="geometry" />
        </mxCell>
        <mxCell id="RY1CAaHzfqEOuhhTVTpi-862" value="86" style="text;spacingTop=-5;align=center;verticalAlign=middle;fontStyle=0;html=1;fontSize=18;points=[]" vertex="1" parent="1">
          <mxGeometry x="2786" y="773" width="30" height="40" as="geometry" />
        </mxCell>
        <mxCell id="RY1CAaHzfqEOuhhTVTpi-863" value="90.7" style="text;spacingTop=-5;align=center;verticalAlign=middle;fontStyle=0;html=1;fontSize=18;points=[]" vertex="1" parent="1">
          <mxGeometry x="2854" y="749" width="30" height="40" as="geometry" />
        </mxCell>
        <mxCell id="RY1CAaHzfqEOuhhTVTpi-864" value="86.8" style="text;spacingTop=-5;align=center;verticalAlign=middle;fontStyle=0;html=1;fontSize=18;points=[]" vertex="1" parent="1">
          <mxGeometry x="2881" y="773" width="30" height="40" as="geometry" />
        </mxCell>
        <mxCell id="RY1CAaHzfqEOuhhTVTpi-865" value="92.9" style="text;spacingTop=-5;align=center;verticalAlign=middle;fontStyle=0;html=1;fontSize=18;points=[]" vertex="1" parent="1">
          <mxGeometry x="2914.5" y="736" width="30" height="40" as="geometry" />
        </mxCell>
        <mxCell id="RY1CAaHzfqEOuhhTVTpi-866" value="93.7" style="text;spacingTop=-5;align=center;verticalAlign=middle;fontStyle=0;html=1;fontSize=18;points=[]" vertex="1" parent="1">
          <mxGeometry x="2976" y="730" width="30" height="40" as="geometry" />
        </mxCell>
        <mxCell id="RY1CAaHzfqEOuhhTVTpi-867" value="93.6" style="text;spacingTop=-5;align=center;verticalAlign=middle;fontStyle=0;html=1;fontSize=18;points=[]" vertex="1" parent="1">
          <mxGeometry x="3012" y="733" width="30" height="40" as="geometry" />
        </mxCell>
        <mxCell id="RY1CAaHzfqEOuhhTVTpi-868" value="93.8" style="text;spacingTop=-5;align=center;verticalAlign=middle;fontStyle=0;html=1;fontSize=18;points=[]" vertex="1" parent="1">
          <mxGeometry x="3047" y="733" width="30" height="40" as="geometry" />
        </mxCell>
        <mxCell id="RY1CAaHzfqEOuhhTVTpi-869" value="85.7" style="text;spacingTop=-5;align=center;verticalAlign=middle;fontStyle=0;html=1;fontSize=18;points=[]" vertex="1" parent="1">
          <mxGeometry x="3107.75" y="777" width="30" height="40" as="geometry" />
        </mxCell>
        <mxCell id="RY1CAaHzfqEOuhhTVTpi-870" value="84" style="text;spacingTop=-5;align=center;verticalAlign=middle;fontStyle=0;html=1;fontSize=18;points=[]" vertex="1" parent="1">
          <mxGeometry x="3138.25" y="780" width="30" height="40" as="geometry" />
        </mxCell>
        <mxCell id="RY1CAaHzfqEOuhhTVTpi-874" value="" style="whiteSpace=wrap;fillColor=#D4D455;gradientDirection=east;strokeColor=#005700;html=1;fontColor=#ffffff;fillStyle=auto;" vertex="1" parent="1">
          <mxGeometry x="2515.5" y="1294" width="19.5" height="285.5" as="geometry" />
        </mxCell>
        <mxCell id="RY1CAaHzfqEOuhhTVTpi-875" value="" style="whiteSpace=wrap;fillColor=#E5CCFF;gradientDirection=east;strokeColor=#005700;html=1;fontColor=#ffffff;" vertex="1" parent="1">
          <mxGeometry x="2537" y="1295" width="19" height="285.5" as="geometry" />
        </mxCell>
        <mxCell id="RY1CAaHzfqEOuhhTVTpi-876" value="80" style="text;spacingTop=-5;align=center;verticalAlign=middle;fontStyle=0;html=1;fontSize=18;points=[]" vertex="1" parent="1">
          <mxGeometry x="2512.5" y="1262" width="30" height="40" as="geometry" />
        </mxCell>
        <mxCell id="RY1CAaHzfqEOuhhTVTpi-877" value="80" style="text;spacingTop=-5;align=center;verticalAlign=middle;fontStyle=0;html=1;fontSize=18;points=[]" vertex="1" parent="1">
          <mxGeometry x="2533.5" y="1266" width="30" height="40" as="geometry" />
        </mxCell>
        <mxCell id="RY1CAaHzfqEOuhhTVTpi-878" value="" style="whiteSpace=wrap;fillColor=#767CB5;gradientColor=none;gradientDirection=east;strokeColor=none;html=1;fontColor=#23445d;imageHeight=100;" vertex="1" parent="1">
          <mxGeometry x="2581.5" y="1313" width="19" height="267.5" as="geometry" />
        </mxCell>
        <mxCell id="RY1CAaHzfqEOuhhTVTpi-879" value="" style="whiteSpace=wrap;fillColor=#F08705;gradientColor=none;gradientDirection=east;strokeColor=none;html=1;fontColor=#23445d;imageAspect=1;" vertex="1" parent="1">
          <mxGeometry x="2600.5" y="1342" width="18" height="237.5" as="geometry" />
        </mxCell>
        <mxCell id="RY1CAaHzfqEOuhhTVTpi-880" value="" style="whiteSpace=wrap;fillColor=#008a00;gradientDirection=east;strokeColor=#005700;html=1;fontColor=#ffffff;" vertex="1" parent="1">
          <mxGeometry x="2619.5" y="1295.5" width="20" height="285.5" as="geometry" />
        </mxCell>
        <mxCell id="RY1CAaHzfqEOuhhTVTpi-881" value="68.7" style="text;spacingTop=-5;align=center;verticalAlign=middle;fontStyle=0;html=1;fontSize=18;points=[]" vertex="1" parent="1">
          <mxGeometry x="2603.5" y="1309" width="30" height="40" as="geometry" />
        </mxCell>
        <mxCell id="RY1CAaHzfqEOuhhTVTpi-882" value="80" style="text;spacingTop=-5;align=center;verticalAlign=middle;fontStyle=0;html=1;fontSize=18;points=[]" vertex="1" parent="1">
          <mxGeometry x="2611" y="1265" width="30" height="40" as="geometry" />
        </mxCell>
        <mxCell id="RY1CAaHzfqEOuhhTVTpi-883" value="" style="whiteSpace=wrap;fillColor=#D4D455;gradientDirection=east;strokeColor=#005700;html=1;fontColor=#ffffff;fillStyle=auto;" vertex="1" parent="1">
          <mxGeometry x="2641" y="1294" width="19.5" height="285.5" as="geometry" />
        </mxCell>
        <mxCell id="RY1CAaHzfqEOuhhTVTpi-884" value="" style="whiteSpace=wrap;fillColor=#E5CCFF;gradientDirection=east;strokeColor=#005700;html=1;fontColor=#ffffff;" vertex="1" parent="1">
          <mxGeometry x="2662.5" y="1294" width="19" height="285.5" as="geometry" />
        </mxCell>
        <mxCell id="RY1CAaHzfqEOuhhTVTpi-885" value="80" style="text;spacingTop=-5;align=center;verticalAlign=middle;fontStyle=0;html=1;fontSize=18;points=[]" vertex="1" parent="1">
          <mxGeometry x="2638" y="1261" width="30" height="40" as="geometry" />
        </mxCell>
        <mxCell id="RY1CAaHzfqEOuhhTVTpi-886" value="80" style="text;spacingTop=-5;align=center;verticalAlign=middle;fontStyle=0;html=1;fontSize=18;points=[]" vertex="1" parent="1">
          <mxGeometry x="2659" y="1265" width="30" height="40" as="geometry" />
        </mxCell>
        <mxCell id="RY1CAaHzfqEOuhhTVTpi-897" value="" style="whiteSpace=wrap;fillColor=#767CB5;gradientColor=none;gradientDirection=east;strokeColor=none;html=1;fontColor=#23445d;imageHeight=100;" vertex="1" parent="1">
          <mxGeometry x="2705.25" y="1313.5" width="19" height="267.5" as="geometry" />
        </mxCell>
        <mxCell id="RY1CAaHzfqEOuhhTVTpi-898" value="" style="whiteSpace=wrap;fillColor=#F08705;gradientColor=none;gradientDirection=east;strokeColor=none;html=1;fontColor=#23445d;imageAspect=1;" vertex="1" parent="1">
          <mxGeometry x="2724.25" y="1342.5" width="18" height="237.5" as="geometry" />
        </mxCell>
        <mxCell id="RY1CAaHzfqEOuhhTVTpi-899" value="" style="whiteSpace=wrap;fillColor=#008a00;gradientDirection=east;strokeColor=#005700;html=1;fontColor=#ffffff;" vertex="1" parent="1">
          <mxGeometry x="2743.25" y="1296" width="20" height="285.5" as="geometry" />
        </mxCell>
        <mxCell id="RY1CAaHzfqEOuhhTVTpi-900" value="68.7" style="text;spacingTop=-5;align=center;verticalAlign=middle;fontStyle=0;html=1;fontSize=18;points=[]" vertex="1" parent="1">
          <mxGeometry x="2727.25" y="1309.5" width="30" height="40" as="geometry" />
        </mxCell>
        <mxCell id="RY1CAaHzfqEOuhhTVTpi-901" value="80" style="text;spacingTop=-5;align=center;verticalAlign=middle;fontStyle=0;html=1;fontSize=18;points=[]" vertex="1" parent="1">
          <mxGeometry x="2734.75" y="1265.5" width="30" height="40" as="geometry" />
        </mxCell>
        <mxCell id="RY1CAaHzfqEOuhhTVTpi-902" value="" style="whiteSpace=wrap;fillColor=#D4D455;gradientDirection=east;strokeColor=#005700;html=1;fontColor=#ffffff;fillStyle=auto;" vertex="1" parent="1">
          <mxGeometry x="2764.75" y="1294.5" width="19.5" height="285.5" as="geometry" />
        </mxCell>
        <mxCell id="RY1CAaHzfqEOuhhTVTpi-903" value="" style="whiteSpace=wrap;fillColor=#E5CCFF;gradientDirection=east;strokeColor=#005700;html=1;fontColor=#ffffff;" vertex="1" parent="1">
          <mxGeometry x="2786.25" y="1294.5" width="19" height="285.5" as="geometry" />
        </mxCell>
        <mxCell id="RY1CAaHzfqEOuhhTVTpi-904" value="80" style="text;spacingTop=-5;align=center;verticalAlign=middle;fontStyle=0;html=1;fontSize=18;points=[]" vertex="1" parent="1">
          <mxGeometry x="2761.75" y="1261.5" width="30" height="40" as="geometry" />
        </mxCell>
        <mxCell id="RY1CAaHzfqEOuhhTVTpi-905" value="80" style="text;spacingTop=-5;align=center;verticalAlign=middle;fontStyle=0;html=1;fontSize=18;points=[]" vertex="1" parent="1">
          <mxGeometry x="2782.75" y="1265.5" width="30" height="40" as="geometry" />
        </mxCell>
        <mxCell id="RY1CAaHzfqEOuhhTVTpi-906" value="" style="whiteSpace=wrap;fillColor=#767CB5;gradientColor=none;gradientDirection=east;strokeColor=none;html=1;fontColor=#23445d;imageHeight=100;" vertex="1" parent="1">
          <mxGeometry x="2842.25" y="1314" width="19" height="267.5" as="geometry" />
        </mxCell>
        <mxCell id="RY1CAaHzfqEOuhhTVTpi-907" value="" style="whiteSpace=wrap;fillColor=#F08705;gradientColor=none;gradientDirection=east;strokeColor=none;html=1;fontColor=#23445d;imageAspect=1;" vertex="1" parent="1">
          <mxGeometry x="2861.25" y="1343" width="18" height="237.5" as="geometry" />
        </mxCell>
        <mxCell id="RY1CAaHzfqEOuhhTVTpi-908" value="" style="whiteSpace=wrap;fillColor=#008a00;gradientDirection=east;strokeColor=#005700;html=1;fontColor=#ffffff;" vertex="1" parent="1">
          <mxGeometry x="2880.25" y="1296.5" width="20" height="285.5" as="geometry" />
        </mxCell>
        <mxCell id="RY1CAaHzfqEOuhhTVTpi-909" value="68.7" style="text;spacingTop=-5;align=center;verticalAlign=middle;fontStyle=0;html=1;fontSize=18;points=[]" vertex="1" parent="1">
          <mxGeometry x="2864.25" y="1310" width="30" height="40" as="geometry" />
        </mxCell>
        <mxCell id="RY1CAaHzfqEOuhhTVTpi-910" value="80" style="text;spacingTop=-5;align=center;verticalAlign=middle;fontStyle=0;html=1;fontSize=18;points=[]" vertex="1" parent="1">
          <mxGeometry x="2871.75" y="1266" width="30" height="40" as="geometry" />
        </mxCell>
        <mxCell id="RY1CAaHzfqEOuhhTVTpi-911" value="" style="whiteSpace=wrap;fillColor=#D4D455;gradientDirection=east;strokeColor=#005700;html=1;fontColor=#ffffff;fillStyle=auto;" vertex="1" parent="1">
          <mxGeometry x="2901.75" y="1294" width="19.5" height="285.5" as="geometry" />
        </mxCell>
        <mxCell id="RY1CAaHzfqEOuhhTVTpi-912" value="" style="whiteSpace=wrap;fillColor=#E5CCFF;gradientDirection=east;strokeColor=#005700;html=1;fontColor=#ffffff;" vertex="1" parent="1">
          <mxGeometry x="2923.25" y="1295" width="19" height="285.5" as="geometry" />
        </mxCell>
        <mxCell id="RY1CAaHzfqEOuhhTVTpi-913" value="80" style="text;spacingTop=-5;align=center;verticalAlign=middle;fontStyle=0;html=1;fontSize=18;points=[]" vertex="1" parent="1">
          <mxGeometry x="2898.75" y="1262" width="30" height="40" as="geometry" />
        </mxCell>
        <mxCell id="RY1CAaHzfqEOuhhTVTpi-914" value="80" style="text;spacingTop=-5;align=center;verticalAlign=middle;fontStyle=0;html=1;fontSize=18;points=[]" vertex="1" parent="1">
          <mxGeometry x="2919.75" y="1266" width="30" height="40" as="geometry" />
        </mxCell>
        <mxCell id="RY1CAaHzfqEOuhhTVTpi-915" value="" style="whiteSpace=wrap;fillColor=#767CB5;gradientColor=none;gradientDirection=east;strokeColor=none;html=1;fontColor=#23445d;imageHeight=100;" vertex="1" parent="1">
          <mxGeometry x="2967.5" y="1314" width="19" height="267.5" as="geometry" />
        </mxCell>
        <mxCell id="RY1CAaHzfqEOuhhTVTpi-916" value="" style="whiteSpace=wrap;fillColor=#F08705;gradientColor=none;gradientDirection=east;strokeColor=none;html=1;fontColor=#23445d;imageAspect=1;" vertex="1" parent="1">
          <mxGeometry x="2986.5" y="1343" width="18" height="237.5" as="geometry" />
        </mxCell>
        <mxCell id="RY1CAaHzfqEOuhhTVTpi-917" value="" style="whiteSpace=wrap;fillColor=#008a00;gradientDirection=east;strokeColor=#005700;html=1;fontColor=#ffffff;" vertex="1" parent="1">
          <mxGeometry x="3005.5" y="1296.5" width="20" height="285.5" as="geometry" />
        </mxCell>
        <mxCell id="RY1CAaHzfqEOuhhTVTpi-918" value="68.7" style="text;spacingTop=-5;align=center;verticalAlign=middle;fontStyle=0;html=1;fontSize=18;points=[]" vertex="1" parent="1">
          <mxGeometry x="2989.5" y="1310" width="30" height="40" as="geometry" />
        </mxCell>
        <mxCell id="RY1CAaHzfqEOuhhTVTpi-919" value="80" style="text;spacingTop=-5;align=center;verticalAlign=middle;fontStyle=0;html=1;fontSize=18;points=[]" vertex="1" parent="1">
          <mxGeometry x="2997" y="1266" width="30" height="40" as="geometry" />
        </mxCell>
        <mxCell id="RY1CAaHzfqEOuhhTVTpi-920" value="" style="whiteSpace=wrap;fillColor=#D4D455;gradientDirection=east;strokeColor=#005700;html=1;fontColor=#ffffff;fillStyle=auto;" vertex="1" parent="1">
          <mxGeometry x="3027" y="1295" width="19.5" height="285.5" as="geometry" />
        </mxCell>
        <mxCell id="RY1CAaHzfqEOuhhTVTpi-921" value="" style="whiteSpace=wrap;fillColor=#E5CCFF;gradientDirection=east;strokeColor=#005700;html=1;fontColor=#ffffff;" vertex="1" parent="1">
          <mxGeometry x="3048.5" y="1295" width="19" height="285.5" as="geometry" />
        </mxCell>
        <mxCell id="RY1CAaHzfqEOuhhTVTpi-922" value="80" style="text;spacingTop=-5;align=center;verticalAlign=middle;fontStyle=0;html=1;fontSize=18;points=[]" vertex="1" parent="1">
          <mxGeometry x="3024" y="1262" width="30" height="40" as="geometry" />
        </mxCell>
        <mxCell id="RY1CAaHzfqEOuhhTVTpi-923" value="80" style="text;spacingTop=-5;align=center;verticalAlign=middle;fontStyle=0;html=1;fontSize=18;points=[]" vertex="1" parent="1">
          <mxGeometry x="3045" y="1266" width="30" height="40" as="geometry" />
        </mxCell>
        <mxCell id="RY1CAaHzfqEOuhhTVTpi-924" value="" style="whiteSpace=wrap;fillColor=#767CB5;gradientColor=none;gradientDirection=east;strokeColor=none;html=1;fontColor=#23445d;imageHeight=100;" vertex="1" parent="1">
          <mxGeometry x="3095.5" y="1314" width="19" height="267.5" as="geometry" />
        </mxCell>
        <mxCell id="RY1CAaHzfqEOuhhTVTpi-925" value="" style="whiteSpace=wrap;fillColor=#F08705;gradientColor=none;gradientDirection=east;strokeColor=none;html=1;fontColor=#23445d;imageAspect=1;" vertex="1" parent="1">
          <mxGeometry x="3114.5" y="1343" width="18" height="237.5" as="geometry" />
        </mxCell>
        <mxCell id="RY1CAaHzfqEOuhhTVTpi-926" value="" style="whiteSpace=wrap;fillColor=#008a00;gradientDirection=east;strokeColor=#005700;html=1;fontColor=#ffffff;" vertex="1" parent="1">
          <mxGeometry x="3133.5" y="1296.5" width="20" height="285.5" as="geometry" />
        </mxCell>
        <mxCell id="RY1CAaHzfqEOuhhTVTpi-927" value="68.7" style="text;spacingTop=-5;align=center;verticalAlign=middle;fontStyle=0;html=1;fontSize=18;points=[]" vertex="1" parent="1">
          <mxGeometry x="3117.5" y="1310" width="30" height="40" as="geometry" />
        </mxCell>
        <mxCell id="RY1CAaHzfqEOuhhTVTpi-928" value="80" style="text;spacingTop=-5;align=center;verticalAlign=middle;fontStyle=0;html=1;fontSize=18;points=[]" vertex="1" parent="1">
          <mxGeometry x="3125" y="1266" width="30" height="40" as="geometry" />
        </mxCell>
        <mxCell id="RY1CAaHzfqEOuhhTVTpi-929" value="" style="whiteSpace=wrap;fillColor=#D4D455;gradientDirection=east;strokeColor=#005700;html=1;fontColor=#ffffff;fillStyle=auto;" vertex="1" parent="1">
          <mxGeometry x="3155" y="1295" width="19.5" height="285.5" as="geometry" />
        </mxCell>
        <mxCell id="RY1CAaHzfqEOuhhTVTpi-930" value="" style="whiteSpace=wrap;fillColor=#E5CCFF;gradientDirection=east;strokeColor=#005700;html=1;fontColor=#ffffff;" vertex="1" parent="1">
          <mxGeometry x="3176.5" y="1295" width="19" height="285.5" as="geometry" />
        </mxCell>
        <mxCell id="RY1CAaHzfqEOuhhTVTpi-931" value="80" style="text;spacingTop=-5;align=center;verticalAlign=middle;fontStyle=0;html=1;fontSize=18;points=[]" vertex="1" parent="1">
          <mxGeometry x="3152" y="1262" width="30" height="40" as="geometry" />
        </mxCell>
        <mxCell id="RY1CAaHzfqEOuhhTVTpi-932" value="80" style="text;spacingTop=-5;align=center;verticalAlign=middle;fontStyle=0;html=1;fontSize=18;points=[]" vertex="1" parent="1">
          <mxGeometry x="3173" y="1266" width="30" height="40" as="geometry" />
        </mxCell>
        <mxCell id="RY1CAaHzfqEOuhhTVTpi-935" value="" style="whiteSpace=wrap;fillColor=#D4D455;gradientColor=none;gradientDirection=east;strokeColor=none;html=1;fontColor=#23445d;" vertex="1" parent="1">
          <mxGeometry x="2893.25" y="1628" width="12" height="14" as="geometry" />
        </mxCell>
        <mxCell id="RY1CAaHzfqEOuhhTVTpi-936" value="without PB" style="text;spacingTop=-5;html=1;points=[];fontSize=15;" vertex="1" parent="1">
          <mxGeometry x="2917" y="1628" width="80" height="20" as="geometry" />
        </mxCell>
        <mxCell id="RY1CAaHzfqEOuhhTVTpi-937" value="" style="whiteSpace=wrap;fillColor=#E5CCFF;gradientColor=none;gradientDirection=east;strokeColor=none;html=1;fontColor=#23445d;" vertex="1" parent="1">
          <mxGeometry x="3025.5" y="1628" width="12" height="14" as="geometry" />
        </mxCell>
        <mxCell id="RY1CAaHzfqEOuhhTVTpi-938" value="AE-PB+STDP" style="text;spacingTop=-5;html=1;points=[];fontSize=15;" vertex="1" parent="1">
          <mxGeometry x="3049.25" y="1628" width="80" height="20" as="geometry" />
        </mxCell>
      </root>
    </mxGraphModel>
  </diagram>
</mxfile>
